<mxfile host="app.diagrams.net" modified="2022-03-15T08:16:38.513Z" agent="5.0 (Windows NT 10.0; Win64; x64) AppleWebKit/537.36 (KHTML, like Gecko) Chrome/99.0.4844.51 Safari/537.36" etag="lMdUpK5vG03DVqUYF8Tj" version="17.1.2" type="github">
  <diagram id="VQwfta1OL1ngFvQ2oTLC" name="Page-1">
    <mxGraphModel dx="2156" dy="732" grid="1" gridSize="10" guides="1" tooltips="1" connect="1" arrows="1" fold="1" page="1" pageScale="1" pageWidth="1100" pageHeight="850" math="0" shadow="0">
      <root>
        <mxCell id="0" />
        <mxCell id="1" parent="0" />
        <mxCell id="wjvx4pCfY3qMHOQfi7Cr-11" value="MARS RedDesk Support Structure &amp; Process" style="swimlane;startSize=20;horizontal=1;childLayout=flowLayout;flowOrientation=north;resizable=0;interRankCellSpacing=50;containerType=tree;strokeColor=none;" parent="1" vertex="1">
          <mxGeometry x="-1010" y="100" width="960" height="302" as="geometry" />
        </mxCell>
        <mxCell id="wjvx4pCfY3qMHOQfi7Cr-12" value="REDDESK" style="whiteSpace=wrap;html=1;fontStyle=5;fillColor=#f8cecc;strokeColor=#b85450;" parent="wjvx4pCfY3qMHOQfi7Cr-11" vertex="1">
          <mxGeometry x="445" y="40" width="100" height="40" as="geometry" />
        </mxCell>
        <mxCell id="wjvx4pCfY3qMHOQfi7Cr-13" value="General" style="whiteSpace=wrap;html=1;fillColor=#fff2cc;strokeColor=#d6b656;gradientColor=#ffd966;" parent="wjvx4pCfY3qMHOQfi7Cr-11" vertex="1">
          <mxGeometry x="20" y="130" width="100" height="40" as="geometry" />
        </mxCell>
        <mxCell id="wjvx4pCfY3qMHOQfi7Cr-14" value="" style="html=1;curved=1;rounded=0;noEdgeStyle=1;orthogonal=1;fillColor=#e51400;strokeColor=#B20000;" parent="wjvx4pCfY3qMHOQfi7Cr-11" source="wjvx4pCfY3qMHOQfi7Cr-12" target="wjvx4pCfY3qMHOQfi7Cr-13" edge="1">
          <mxGeometry relative="1" as="geometry">
            <Array as="points">
              <mxPoint x="456.42857142857144" y="92" />
              <mxPoint x="70" y="118" />
            </Array>
          </mxGeometry>
        </mxCell>
        <mxCell id="wjvx4pCfY3qMHOQfi7Cr-15" value="R in SPACE (envsetup, &lt;br&gt;package management)" style="whiteSpace=wrap;html=1;fillColor=#fff2cc;gradientColor=#ffd966;strokeColor=#d6b656;" parent="wjvx4pCfY3qMHOQfi7Cr-11" vertex="1">
          <mxGeometry x="150" y="130" width="130" height="40" as="geometry" />
        </mxCell>
        <mxCell id="wjvx4pCfY3qMHOQfi7Cr-16" value="" style="html=1;curved=1;rounded=0;noEdgeStyle=1;orthogonal=1;fillColor=#e51400;strokeColor=#B20000;" parent="wjvx4pCfY3qMHOQfi7Cr-11" source="wjvx4pCfY3qMHOQfi7Cr-12" target="wjvx4pCfY3qMHOQfi7Cr-15" edge="1">
          <mxGeometry relative="1" as="geometry">
            <Array as="points">
              <mxPoint x="469.2857142857143" y="94" />
              <mxPoint x="215" y="118" />
            </Array>
          </mxGeometry>
        </mxCell>
        <mxCell id="olOv5MucU8dO_Wtyu6DV-2" value="" style="html=1;curved=1;rounded=0;noEdgeStyle=1;orthogonal=1;fillColor=#e51400;strokeColor=#B20000;" parent="wjvx4pCfY3qMHOQfi7Cr-11" source="wjvx4pCfY3qMHOQfi7Cr-12" target="olOv5MucU8dO_Wtyu6DV-3" edge="1">
          <mxGeometry relative="1" as="geometry">
            <Array as="points">
              <mxPoint x="482.1428571428571" y="96" />
              <mxPoint x="360" y="118" />
            </Array>
            <mxPoint x="1087.5" y="3210" as="sourcePoint" />
          </mxGeometry>
        </mxCell>
        <mxCell id="olOv5MucU8dO_Wtyu6DV-3" value="Tidytlg&lt;br&gt;&amp;nbsp;(reporting tool)" style="whiteSpace=wrap;html=1;fillColor=#fff2cc;gradientColor=#ffd966;strokeColor=#d6b656;" parent="wjvx4pCfY3qMHOQfi7Cr-11" vertex="1">
          <mxGeometry x="310" y="130" width="100" height="40" as="geometry" />
        </mxCell>
        <mxCell id="olOv5MucU8dO_Wtyu6DV-4" value="" style="html=1;curved=1;rounded=0;noEdgeStyle=1;orthogonal=1;fillColor=#e51400;strokeColor=#B20000;" parent="wjvx4pCfY3qMHOQfi7Cr-11" source="wjvx4pCfY3qMHOQfi7Cr-12" target="olOv5MucU8dO_Wtyu6DV-5" edge="1">
          <mxGeometry relative="1" as="geometry">
            <Array as="points">
              <mxPoint x="494.99999999999994" y="98" />
              <mxPoint x="495" y="118" />
            </Array>
            <mxPoint x="1140" y="3170" as="sourcePoint" />
          </mxGeometry>
        </mxCell>
        <mxCell id="olOv5MucU8dO_Wtyu6DV-5" value="Tidyverse&lt;br&gt;&amp;nbsp;(data manipulation)" style="whiteSpace=wrap;html=1;fillColor=#fff2cc;gradientColor=#ffd966;strokeColor=#d6b656;" parent="wjvx4pCfY3qMHOQfi7Cr-11" vertex="1">
          <mxGeometry x="440" y="130" width="110" height="40" as="geometry" />
        </mxCell>
        <mxCell id="olOv5MucU8dO_Wtyu6DV-6" value="" style="html=1;curved=1;rounded=0;noEdgeStyle=1;orthogonal=1;fillColor=#e51400;strokeColor=#B20000;" parent="wjvx4pCfY3qMHOQfi7Cr-11" source="wjvx4pCfY3qMHOQfi7Cr-12" target="olOv5MucU8dO_Wtyu6DV-7" edge="1">
          <mxGeometry relative="1" as="geometry">
            <Array as="points">
              <mxPoint x="507.8571428571428" y="96" />
              <mxPoint x="630" y="118" />
            </Array>
            <mxPoint x="1188.75" y="3130" as="sourcePoint" />
          </mxGeometry>
        </mxCell>
        <mxCell id="olOv5MucU8dO_Wtyu6DV-7" value="ggplot2 (visualization)" style="whiteSpace=wrap;html=1;fillColor=#fff2cc;gradientColor=#ffd966;strokeColor=#d6b656;" parent="wjvx4pCfY3qMHOQfi7Cr-11" vertex="1">
          <mxGeometry x="580" y="130" width="100" height="40" as="geometry" />
        </mxCell>
        <mxCell id="olOv5MucU8dO_Wtyu6DV-8" value="" style="html=1;curved=1;rounded=0;noEdgeStyle=1;orthogonal=1;fillColor=#e51400;strokeColor=#B20000;" parent="wjvx4pCfY3qMHOQfi7Cr-11" source="wjvx4pCfY3qMHOQfi7Cr-13" target="olOv5MucU8dO_Wtyu6DV-9" edge="1">
          <mxGeometry relative="1" as="geometry">
            <Array as="points">
              <mxPoint x="70" y="182" />
              <mxPoint x="70" y="208" />
            </Array>
            <mxPoint x="940" y="3180" as="sourcePoint" />
          </mxGeometry>
        </mxCell>
        <mxCell id="olOv5MucU8dO_Wtyu6DV-9" value="Primary:&lt;br&gt;Guillaume Abgrall&lt;br&gt;Backup:&amp;nbsp;&lt;br&gt;Simon Todd" style="whiteSpace=wrap;html=1;fillColor=#dae8fc;gradientColor=#7ea6e0;strokeColor=#6c8ebf;" parent="wjvx4pCfY3qMHOQfi7Cr-11" vertex="1">
          <mxGeometry x="20" y="221.125" width="100" height="59.25" as="geometry" />
        </mxCell>
        <mxCell id="olOv5MucU8dO_Wtyu6DV-12" value="" style="html=1;curved=1;rounded=0;noEdgeStyle=1;orthogonal=1;fillColor=#e51400;strokeColor=#B20000;" parent="wjvx4pCfY3qMHOQfi7Cr-11" source="wjvx4pCfY3qMHOQfi7Cr-15" target="olOv5MucU8dO_Wtyu6DV-13" edge="1">
          <mxGeometry relative="1" as="geometry">
            <Array as="points">
              <mxPoint x="215" y="182" />
              <mxPoint x="215" y="208" />
            </Array>
            <mxPoint x="1102" y="2930" as="sourcePoint" />
          </mxGeometry>
        </mxCell>
        <mxCell id="olOv5MucU8dO_Wtyu6DV-13" value="Primary:&lt;br&gt;Guillaume Abgrall&lt;br&gt;Backup:&lt;br&gt;Simon Todd" style="whiteSpace=wrap;html=1;fillColor=#dae8fc;gradientColor=#7ea6e0;strokeColor=#6c8ebf;" parent="wjvx4pCfY3qMHOQfi7Cr-11" vertex="1">
          <mxGeometry x="165" y="221.125" width="100" height="59.25" as="geometry" />
        </mxCell>
        <mxCell id="olOv5MucU8dO_Wtyu6DV-14" value="" style="html=1;curved=1;rounded=0;noEdgeStyle=1;orthogonal=1;fillColor=#e51400;strokeColor=#B20000;" parent="wjvx4pCfY3qMHOQfi7Cr-11" source="olOv5MucU8dO_Wtyu6DV-3" target="JjLd1DPKK2njpRceMTh7-41" edge="1">
          <mxGeometry relative="1" as="geometry">
            <Array as="points">
              <mxPoint x="360" y="182" />
              <mxPoint x="350" y="208" />
            </Array>
            <mxPoint x="1080" y="2850" as="sourcePoint" />
          </mxGeometry>
        </mxCell>
        <mxCell id="olOv5MucU8dO_Wtyu6DV-16" value="" style="html=1;curved=1;rounded=0;noEdgeStyle=1;orthogonal=1;fillColor=#e51400;strokeColor=#B20000;" parent="wjvx4pCfY3qMHOQfi7Cr-11" source="olOv5MucU8dO_Wtyu6DV-5" target="olOv5MucU8dO_Wtyu6DV-17" edge="1">
          <mxGeometry relative="1" as="geometry">
            <Array as="points">
              <mxPoint x="495" y="182" />
              <mxPoint x="480" y="208" />
            </Array>
            <mxPoint x="1078" y="2810" as="sourcePoint" />
          </mxGeometry>
        </mxCell>
        <mxCell id="olOv5MucU8dO_Wtyu6DV-17" value="Primary: Guillaume Abgrall&lt;br&gt;Backup :&lt;br&gt;Simon Todd" style="whiteSpace=wrap;html=1;fillColor=#dae8fc;gradientColor=#7ea6e0;strokeColor=#6c8ebf;" parent="wjvx4pCfY3qMHOQfi7Cr-11" vertex="1">
          <mxGeometry x="430" y="220.75" width="100" height="60" as="geometry" />
        </mxCell>
        <mxCell id="olOv5MucU8dO_Wtyu6DV-18" value="" style="html=1;curved=1;rounded=0;noEdgeStyle=1;orthogonal=1;fillColor=#e51400;strokeColor=#B20000;" parent="wjvx4pCfY3qMHOQfi7Cr-11" source="olOv5MucU8dO_Wtyu6DV-7" target="olOv5MucU8dO_Wtyu6DV-19" edge="1">
          <mxGeometry relative="1" as="geometry">
            <Array as="points">
              <mxPoint x="630" y="182" />
              <mxPoint x="610" y="208" />
            </Array>
            <mxPoint x="1076" y="2770" as="sourcePoint" />
          </mxGeometry>
        </mxCell>
        <mxCell id="olOv5MucU8dO_Wtyu6DV-19" value="Primary: Guillaume Abgrall&lt;br&gt;Backup:&lt;br&gt;Simon Todd" style="whiteSpace=wrap;html=1;fillColor=#dae8fc;gradientColor=#7ea6e0;strokeColor=#6c8ebf;" parent="wjvx4pCfY3qMHOQfi7Cr-11" vertex="1">
          <mxGeometry x="560" y="220" width="100" height="61.5" as="geometry" />
        </mxCell>
        <mxCell id="JjLd1DPKK2njpRceMTh7-5" value="" style="html=1;curved=1;rounded=0;noEdgeStyle=1;orthogonal=1;fillColor=#e51400;strokeColor=#B20000;" edge="1" target="JjLd1DPKK2njpRceMTh7-6" source="wjvx4pCfY3qMHOQfi7Cr-12" parent="wjvx4pCfY3qMHOQfi7Cr-11">
          <mxGeometry relative="1" as="geometry">
            <Array as="points">
              <mxPoint x="520.7142857142856" y="94" />
              <mxPoint x="760" y="118" />
            </Array>
            <mxPoint x="55" y="1180" as="sourcePoint" />
          </mxGeometry>
        </mxCell>
        <mxCell id="JjLd1DPKK2njpRceMTh7-6" value="Shiny &amp;amp; Markdown" style="whiteSpace=wrap;html=1;fillColor=#fff2cc;gradientColor=#ffd966;strokeColor=#d6b656;" vertex="1" parent="wjvx4pCfY3qMHOQfi7Cr-11">
          <mxGeometry x="710" y="130" width="100" height="40" as="geometry" />
        </mxCell>
        <mxCell id="JjLd1DPKK2njpRceMTh7-32" value="" style="html=1;curved=1;rounded=0;noEdgeStyle=1;orthogonal=1;fillColor=#e51400;strokeColor=#B20000;" edge="1" target="JjLd1DPKK2njpRceMTh7-33" source="wjvx4pCfY3qMHOQfi7Cr-12" parent="wjvx4pCfY3qMHOQfi7Cr-11">
          <mxGeometry relative="1" as="geometry">
            <Array as="points">
              <mxPoint x="533.5714285714284" y="92" />
              <mxPoint x="890" y="118" />
            </Array>
            <mxPoint x="-65" y="1100" as="sourcePoint" />
          </mxGeometry>
        </mxCell>
        <mxCell id="JjLd1DPKK2njpRceMTh7-33" value="Stat methods" style="whiteSpace=wrap;html=1;fillColor=#fff2cc;gradientColor=#ffd966;strokeColor=#d6b656;" vertex="1" parent="wjvx4pCfY3qMHOQfi7Cr-11">
          <mxGeometry x="840" y="130" width="100" height="40" as="geometry" />
        </mxCell>
        <mxCell id="JjLd1DPKK2njpRceMTh7-36" value="" style="html=1;curved=1;rounded=0;noEdgeStyle=1;orthogonal=1;fillColor=#e51400;strokeColor=#B20000;" edge="1" target="JjLd1DPKK2njpRceMTh7-37" source="JjLd1DPKK2njpRceMTh7-6" parent="wjvx4pCfY3qMHOQfi7Cr-11">
          <mxGeometry relative="1" as="geometry">
            <Array as="points">
              <mxPoint x="760" y="182" />
              <mxPoint x="740" y="208" />
            </Array>
            <mxPoint x="-29.285714285714675" y="1060" as="sourcePoint" />
          </mxGeometry>
        </mxCell>
        <mxCell id="JjLd1DPKK2njpRceMTh7-37" value="Primary: Guillaume Abgrall&lt;br&gt;Backup:&lt;br&gt;Simon Todd" style="whiteSpace=wrap;html=1;fillColor=#dae8fc;gradientColor=#7ea6e0;strokeColor=#6c8ebf;" vertex="1" parent="wjvx4pCfY3qMHOQfi7Cr-11">
          <mxGeometry x="690" y="221.23" width="100" height="59.04" as="geometry" />
        </mxCell>
        <mxCell id="JjLd1DPKK2njpRceMTh7-38" value="" style="html=1;curved=1;rounded=0;noEdgeStyle=1;orthogonal=1;fillColor=#e51400;strokeColor=#B20000;" edge="1" target="JjLd1DPKK2njpRceMTh7-39" source="JjLd1DPKK2njpRceMTh7-33" parent="wjvx4pCfY3qMHOQfi7Cr-11">
          <mxGeometry relative="1" as="geometry">
            <Array as="points">
              <mxPoint x="890" y="182" />
              <mxPoint x="890" y="208" />
            </Array>
            <mxPoint x="-136.42857142857156" y="820" as="sourcePoint" />
          </mxGeometry>
        </mxCell>
        <mxCell id="JjLd1DPKK2njpRceMTh7-39" value="Primary: Guillaume Abgrall&lt;br&gt;Backup:&lt;br&gt;Simon Todd" style="whiteSpace=wrap;html=1;fillColor=#dae8fc;gradientColor=#7ea6e0;strokeColor=#6c8ebf;" vertex="1" parent="wjvx4pCfY3qMHOQfi7Cr-11">
          <mxGeometry x="840" y="221.34" width="100" height="58.82" as="geometry" />
        </mxCell>
        <mxCell id="JjLd1DPKK2njpRceMTh7-41" value="Primary: Guillaume Abgrall&lt;br&gt;Backup: &lt;br&gt;Simon Todd" style="whiteSpace=wrap;html=1;fillColor=#dae8fc;gradientColor=#7ea6e0;strokeColor=#6c8ebf;" vertex="1" parent="wjvx4pCfY3qMHOQfi7Cr-11">
          <mxGeometry x="300" y="221.125" width="100" height="59.25" as="geometry" />
        </mxCell>
        <mxCell id="olOv5MucU8dO_Wtyu6DV-20" value="&lt;br&gt;&lt;br&gt;Level 1" style="shape=actor;whiteSpace=wrap;html=1;fillColor=#dae8fc;strokeColor=#6c8ebf;" parent="1" vertex="1">
          <mxGeometry x="-1090" y="360" width="60" height="60" as="geometry" />
        </mxCell>
        <mxCell id="JjLd1DPKK2njpRceMTh7-1" value="" style="shape=datastore;whiteSpace=wrap;html=1;" vertex="1" parent="1">
          <mxGeometry x="-710" y="440" width="60" height="60" as="geometry" />
        </mxCell>
        <mxCell id="JjLd1DPKK2njpRceMTh7-2" value="" style="shape=datastore;whiteSpace=wrap;html=1;" vertex="1" parent="1">
          <mxGeometry x="-550" y="440" width="60" height="60" as="geometry" />
        </mxCell>
        <mxCell id="JjLd1DPKK2njpRceMTh7-3" value="" style="shape=datastore;whiteSpace=wrap;html=1;" vertex="1" parent="1">
          <mxGeometry x="-390" y="440" width="60" height="60" as="geometry" />
        </mxCell>
        <mxCell id="olOv5MucU8dO_Wtyu6DV-22" value="" style="edgeStyle=elbowEdgeStyle;elbow=horizontal;endArrow=classic;html=1;rounded=0;fillColor=#f8cecc;gradientColor=#ea6b66;strokeColor=#b85450;" parent="1" edge="1">
          <mxGeometry width="50" height="50" relative="1" as="geometry">
            <mxPoint x="-1030" y="400" as="sourcePoint" />
            <mxPoint x="-990" y="360" as="targetPoint" />
          </mxGeometry>
        </mxCell>
      </root>
    </mxGraphModel>
  </diagram>
</mxfile>
